<svg xmlns="http://www.w3.org/2000/svg" viewBox="0 0 100 100">
  <path d="M50 5 L87 17 V47 C87 71 71 87 50 95 C29 87 13 71 13 47 V17 Z" fill="#2563eb"/>
  <path d="M50 11 L81 21 V47 C81 67 68 81 50 88 C32 81 19 67 19 47 V21 Z" fill="none" stroke="#ffffff" stroke-width="2" opacity="0.85"/>
  <circle cx="50" cy="42" r="17" fill="#ffffff"/>
  <polygon points="50,33 57,38 54,46 46,46 43,38" fill="#0f172a"/>
  <path d="M50 25 L50 33 M63 39 L55 42 M58 55 L54 47 M42 55 L46 47 M37 39 L45 42" stroke="#0f172a" stroke-width="1.6" fill="none" stroke-linecap="round"/>
  <rect x="27" y="64" width="46" height="14" rx="3" fill="#f59e0b"/>
  <text x="50" y="74.5" text-anchor="middle" font-family="Arial,sans-serif" font-weight="bold" font-size="9" fill="#0f172a">CLUB</text>
</svg>
